<?xml version="1.0" encoding="UTF-8" standalone="no"?>
<!-- Created with Inkscape (http://www.inkscape.org/) -->

<svg
   xmlns:dc="http://purl.org/dc/elements/1.1/"
   xmlns:cc="http://creativecommons.org/ns#"
   xmlns:rdf="http://www.w3.org/1999/02/22-rdf-syntax-ns#"
   xmlns:svg="http://www.w3.org/2000/svg"
   xmlns="http://www.w3.org/2000/svg"
   xmlns:sodipodi="http://sodipodi.sourceforge.net/DTD/sodipodi-0.dtd"
   xmlns:inkscape="http://www.inkscape.org/namespaces/inkscape"
   width="1000mm"
   height="1000mm"
   viewBox="0 0 1000 1000"
   version="1.1"
   id="svg8"
   inkscape:version="0.92.3 (2405546, 2018-03-11)"
   sodipodi:docname="dj.svg">
  <defs
     id="defs2" />
  <sodipodi:namedview
     id="base"
     pagecolor="#ffffff"
     bordercolor="#666666"
     borderopacity="1.0"
     inkscape:pageopacity="0.0"
     inkscape:pageshadow="2"
     inkscape:zoom="0.01"
     inkscape:cx="11486.106"
     inkscape:cy="7158.7796"
     inkscape:document-units="px"
     inkscape:current-layer="layer1"
     showgrid="false"
     inkscape:window-width="1853"
     inkscape:window-height="1016"
     inkscape:window-x="67"
     inkscape:window-y="27"
     inkscape:window-maximized="1" />
  <metadata
     id="metadata5">
    <rdf:RDF>
      <cc:Work
         rdf:about="">
        <dc:format>image/svg+xml</dc:format>
        <dc:type
           rdf:resource="http://purl.org/dc/dcmitype/StillImage" />
        <dc:title />
      </cc:Work>
    </rdf:RDF>
  </metadata>
  <g
     inkscape:groupmode="layer"
     id="layer1"
     inkscape:label="Layer 1">
    <path
       style="opacity:1;fill:#0b2822;fill-opacity:1;stroke:none;stroke-width:0.26458332"
       d="M 105.83333,44.476215 C 377.97618,43.468279 310.74763,86.730969 826.37893,41.452406 952.26071,323.76641 964.87298,638.44312 961.57139,957.66666 710.01152,944.58563 663.03983,1034.3963 287.22207,952.85084 188.16564,931.35743 132.87568,956.39861 54.42857,957.66666 L 48.927647,761.46707 C -24.740773,459.63156 40.467454,460.79965 36.285713,310.57144 11.095108,96.102856 74.575682,112.17934 105.83333,44.476215 Z"
       id="rect881"
       inkscape:connector-curvature="0"
       sodipodi:nodetypes="cccscccc" />
    <path
       style="opacity:1;fill:#2ca05a;fill-opacity:1;stroke:none;stroke-width:0.24121179"
       d="M 148.9226,108.73215 C 355.32086,93.614414 556.09786,57.885368 785.43451,126.87501 L 903.36307,851.07739 C 556.73356,631.10486 368.41647,912.18182 94.494026,917.6012 239.49987,377.33715 130.78469,378.3446 148.9226,108.73215 Z"
       id="rect883"
       inkscape:connector-curvature="0"
       sodipodi:nodetypes="ccccc" />
    <path
       style="opacity:1;fill:#0b2822;fill-opacity:1;stroke:none;stroke-width:0.3409771"
       d="M 616.85712,439.08334 C 1190.6521,335.35957 624.1245,691.02903 143.73546,767.21128 -7.1839354,791.14476 63.5,591.88869 63.5,439.08334 c 6e-6,-152.80535 125.39309,-298.17695 276.67856,-276.67855 433.32646,61.57781 29.12921,321.42755 276.67856,276.67855 z"
       id="path885"
       inkscape:connector-curvature="0"
       sodipodi:nodetypes="sssss" />
  </g>
</svg>
